<?xml version="1.0" encoding="UTF-8"?><svg xmlns="http://www.w3.org/2000/svg" viewBox="0 0 48 48"><defs><style>.d{fill:#ffa1c8;}.e{fill:none;}</style></defs><g id="a"/><g id="b"><g id="c"><g><rect class="e" width="48" height="48"/><path class="d" d="M41.82,23.45c1.49-1.69,2.7-3.54,3.61-5.56,.91-2.02,1.37-4.18,1.37-6.48,0-1.49-.28-2.95-.83-4.37-.55-1.42-1.47-2.65-2.76-3.7-1.29-1.05-2.96-1.82-5.02-2.31-2.06-.49-4.59-.55-7.58-.16-3.53,.18-6.88,.99-10.04,2.44-3.17,1.45-6.04,3.32-8.61,5.6-2.57,2.29-4.77,4.87-6.59,7.76-1.82,2.88-3.15,5.84-3.99,8.86-.27,.96-.24,1.88,.09,2.78,.33,.9,.75,1.64,1.26,2.22,.51,.58,.99,.94,1.43,1.08,.45,.13,.66-.08,.63-.65-.06-.93,.1-2.03,.47-3.32,.37-1.28,.92-2.67,1.64-4.17,.72-1.49,1.6-3.04,2.65-4.64,1.05-1.6,2.2-3.17,3.45-4.71,1.26-1.54,2.6-3,4.04-4.37,1.43-1.37,2.91-2.59,4.44-3.63,1.52-1.05,3.07-1.88,4.64-2.51s3.12-.96,4.64-.99c2.69-.03,4.81,.24,6.37,.81,1.55,.57,2.72,1.29,3.5,2.17,.78,.88,1.26,1.84,1.43,2.87,.18,1.03,.27,1.98,.27,2.84-.03,1.88-.41,3.69-1.14,5.44-.73,1.75-1.7,3.39-2.89,4.92-1.2,1.54-2.59,2.94-4.17,4.21-1.58,1.27-3.25,2.36-5,3.27-1.75,.91-3.52,1.61-5.31,2.1s-3.5,.74-5.11,.74c-.99,.03-1.93-.06-2.82-.27,.87-1.97,1.82-3.97,2.85-6.01,1.03-2.03,2.12-4.02,3.27-5.96,1.15-1.94,2.35-3.83,3.61-5.65,1.26-1.82,2.53-3.53,3.81-5.11,.18-.51,.11-1.05-.2-1.61-.31-.57-.71-1.07-1.19-1.5-.48-.43-.96-.75-1.43-.96-.48-.21-.78-.22-.9-.04-1.05,1.52-2.16,3.25-3.34,5.18-1.18,1.93-2.35,3.98-3.52,6.16-1.17,2.18-2.3,4.42-3.41,6.7-1.11,2.29-2.11,4.55-3,6.79-.9-1.05-1.63-2.54-2.2-4.48-.9,.39-1.27,.87-1.12,1.43,.24,1.88,1.12,3.45,2.65,4.71-.9,2.39-1.62,4.63-2.17,6.73-.55,2.09-.86,3.95-.92,5.56-.06,.21,.03,.55,.27,1.03,.24,.48,.52,.94,.83,1.39,.31,.45,.61,.81,.87,1.08,.27,.27,.42,.3,.45,.09,.24-1.85,.72-3.98,1.43-6.37,.72-2.39,1.64-4.95,2.78-7.68,1.08,.34,2.29,.52,3.63,.55,1.7,.06,3.57-.13,5.6-.56,2.03-.43,4.08-1.09,6.14-1.97,2.06-.88,4.06-1.97,6.01-3.27,1.94-1.3,3.66-2.79,5.16-4.48Z"/></g></g></g></svg>