<?xml version="1.0" encoding="UTF-8"?><svg xmlns="http://www.w3.org/2000/svg" viewBox="0 0 1631.55 259.64"><g id="a"/><g id="b"><g id="c"><g><path d="M225.59,126.79c8.3-9.38,14.98-19.67,20.04-30.87,5.06-11.2,7.59-23.19,7.59-35.98,0-8.3-1.54-16.39-4.61-24.28-3.07-7.88-8.18-14.73-15.31-20.54-7.14-5.81-16.43-10.08-27.89-12.82-11.45-2.74-25.48-3.03-42.08-.87-19.59,1-38.18,5.52-55.77,13.57-17.6,8.05-33.53,18.43-47.81,31.12-14.28,12.7-26.48,27.06-36.6,43.07C13.04,105.21,5.65,121.6,1.01,138.37c-1.49,5.31-1.33,10.46,.5,15.44,1.82,4.98,4.15,9.09,6.97,12.33,2.82,3.24,5.48,5.23,7.97,5.98,2.49,.75,3.65-.46,3.49-3.61-.33-5.14,.54-11.29,2.61-18.42,2.07-7.14,5.1-14.85,9.09-23.16,3.98-8.3,8.88-16.89,14.69-25.77,5.81-8.88,12.2-17.59,19.17-26.14,6.97-8.55,14.44-16.64,22.41-24.28,7.97-7.63,16.18-14.36,24.65-20.17,8.47-5.81,17.06-10.46,25.77-13.94s17.3-5.31,25.77-5.48c14.94-.16,26.72,1.33,35.36,4.47,8.63,3.15,15.1,7.17,19.42,12.06,4.31,4.89,6.97,10.19,7.97,15.91,1,5.72,1.49,10.98,1.49,15.78-.17,10.44-2.28,20.51-6.35,30.21-4.07,9.69-9.42,18.81-16.06,27.35-6.64,8.54-14.36,16.32-23.16,23.37-8.8,7.05-18.05,13.1-27.76,18.15-9.71,5.06-19.55,8.95-29.5,11.69s-19.42,4.1-28.38,4.1c-5.48,.17-10.71-.33-15.69-1.49,4.81-10.96,10.08-22.07,15.81-33.36,5.73-11.29,11.78-22.32,18.18-33.12,6.39-10.79,13.07-21.25,20.04-31.37,6.97-10.12,14.02-19.58,21.16-28.38,1-2.82,.62-5.81-1.12-8.96-1.74-3.15-3.94-5.93-6.6-8.34-2.66-2.4-5.31-4.19-7.97-5.35-2.66-1.16-4.32-1.25-4.98-.25-5.81,8.47-11.99,18.05-18.55,28.76-6.56,10.71-13.07,22.12-19.55,34.24-6.47,12.12-12.78,24.53-18.92,37.22-6.14,12.7-11.7,25.27-16.68,37.72-4.98-5.81-9.05-14.11-12.2-24.9-4.98,2.16-7.06,4.82-6.22,7.97,1.33,10.46,6.22,19.17,14.69,26.14-4.98,13.28-9.01,25.73-12.08,37.35-3.07,11.62-4.77,21.91-5.1,30.87-.33,1.16,.16,3.07,1.49,5.73,1.33,2.65,2.86,5.23,4.61,7.72,1.74,2.49,3.36,4.48,4.86,5.98,1.49,1.49,2.32,1.66,2.49,.5,1.33-10.29,3.98-22.08,7.97-35.36,3.98-13.28,9.13-27.5,15.44-42.65,5.98,1.88,12.7,2.89,20.17,3.07,9.46,.33,19.83-.7,31.12-3.11,11.29-2.4,22.66-6.06,34.11-10.96,11.45-4.89,22.57-10.96,33.36-18.18,10.79-7.22,20.33-15.52,28.63-24.9Z"/><path d="M273.15,87.2c1.33,1.74,2.78,3.28,4.36,4.61,1.58,1.33,3.03,2.08,4.36,2.24,.83-3.32,2.07-6.64,3.73-9.96,1.66-3.32,3.36-6.68,5.1-10.08,1.74-3.4,3.4-6.72,4.98-9.96,1.58-3.24,2.78-6.43,3.61-9.59,0-1-.83-2.78-2.49-5.35-1.66-2.57-3.7-5.1-6.1-7.59-2.41-2.49-4.85-4.65-7.35-6.47-2.49-1.82-4.48-2.65-5.98-2.49-.17,3.65-.71,7.51-1.62,11.58-.91,4.07-1.91,8.09-2.99,12.08-1.08,3.98-2.03,7.8-2.86,11.45-.83,3.65-1.33,6.89-1.49,9.71,0,1.33,.46,2.86,1.37,4.61,.91,1.74,2.03,3.49,3.36,5.23Z"/><path d="M640.89,87.2c1.33,1.74,2.78,3.28,4.36,4.61,1.58,1.33,3.03,2.08,4.36,2.24,.83-3.32,2.07-6.64,3.73-9.96,1.66-3.32,3.36-6.68,5.1-10.08,1.74-3.4,3.4-6.72,4.98-9.96,1.58-3.24,2.78-6.43,3.61-9.59,0-1-.83-2.78-2.49-5.35-1.66-2.57-3.7-5.1-6.1-7.59-2.41-2.49-4.85-4.65-7.35-6.47-2.49-1.82-4.48-2.65-5.98-2.49-.17,3.65-.71,7.51-1.62,11.58-.91,4.07-1.91,8.09-2.99,12.08-1.08,3.98-2.03,7.8-2.86,11.45-.83,3.65-1.33,6.89-1.49,9.71,0,1.33,.46,2.86,1.37,4.61,.91,1.74,2.03,3.49,3.36,5.23Z"/><path d="M796.13,152.56c-.75-.5-1.58-.7-2.49-.62-.91,.09-1.62,.54-2.12,1.37-1.99,3.32-4.03,6.77-6.1,10.33-2.08,3.57-4.36,7.18-6.85,10.83-6.47,9.63-13.07,17.35-19.79,23.16-6.72,5.81-12.49,9.88-17.3,12.2-1.83,.83-3.32,1.25-4.48,1.25s-2.03-.25-2.61-.75c-.58-.5-.96-1.08-1.12-1.74-.17-.66-.25-1.24-.25-1.74,.5-6.97,1.58-13.24,3.24-18.8,1.66-5.56,3.82-11.37,6.47-17.43,2.65-6.06,5.73-12.95,9.21-20.67,3.49-7.72,7.3-17.22,11.45-28.51,.66-1.82,.58-3.9-.25-6.22-.83-2.32-2.03-4.52-3.61-6.6-1.58-2.07-3.4-3.82-5.48-5.23-2.08-1.41-4.03-2.12-5.85-2.12-4.48,.33-8.88,1.41-13.2,3.24-4.32,1.83-8.55,4.19-12.7,7.1-4.15,2.91-8.22,6.19-12.2,9.83-3.98,3.65-7.72,7.39-11.2,11.2,1-1.82,1.91-3.57,2.74-5.23,.83-1.66,1.49-3.4,1.99-5.23,.83-2.65,.5-5.39-1-8.22-1.49-2.82-3.49-5.31-5.98-7.47-2.49-2.16-5.1-3.77-7.84-4.86-2.74-1.08-4.94-1.2-6.6-.37-2.82,9.46-6.06,18.84-9.71,28.14-3.65,9.3-7.14,18.63-10.46,28.01-.01,.03-.02,.07-.04,.1-3.2,4.56-6.62,9.37-10.29,14.46-4.07,5.65-8.38,11.04-12.95,16.18-4.57,5.15-9.42,9.75-14.57,13.82-5.15,4.07-10.71,6.93-16.68,8.59h-2.74c-2.99-.16-4.28-2.12-3.86-5.85,.41-3.73,1.74-8.5,3.98-14.32,2.24-5.81,5.19-12.2,8.84-19.17,3.65-6.97,7.26-13.73,10.83-20.29,3.57-6.56,6.89-12.41,9.96-17.55,3.07-5.14,5.1-8.88,6.1-11.2,1.16-2.65,1.12-5.39-.12-8.22-1.25-2.82-2.99-5.31-5.23-7.47-2.24-2.16-4.73-3.77-7.47-4.86-2.74-1.08-4.94-1.2-6.6-.37-2.33,6.14-5.4,13.32-9.21,21.54-3.82,8.22-7.72,16.6-11.7,25.15-1.74,3.73-3.42,7.42-5.06,11.07-2.09,3.38-4.26,6.94-6.51,10.72-3.57,5.98-7.43,11.7-11.58,17.18-4.15,5.48-8.68,10.38-13.57,14.69-4.9,4.32-10.17,7.31-15.81,8.96h-2.99c-3.16-.16-4.57-2.65-4.23-7.47,.33-4.81,1.7-10.87,4.11-18.18,2.4-7.3,5.52-15.35,9.34-24.15,3.82-8.8,7.68-17.18,11.58-25.15,3.9-7.97,7.43-15.06,10.58-21.29,3.15-6.23,5.31-10.5,6.47-12.82,2.65-5.31,5.48-10.83,8.47-16.56,2.99-5.73,5.73-11.16,8.22-16.31,2.49-5.14,4.69-9.75,6.6-13.82,1.91-4.07,3.19-7.1,3.86-9.09,1-2.65,.75-5.39-.75-8.22-1.49-2.82-3.49-5.27-5.98-7.34-2.49-2.07-5.15-3.65-7.97-4.73-2.82-1.08-5.07-1.2-6.72-.37-1.16,4.32-2.66,9.05-4.48,14.19-1.83,5.15-3.95,10.54-6.35,16.18-2.41,5.65-4.94,11.41-7.59,17.3-2.66,5.89-5.4,11.75-8.22,17.55-4.32,8.63-8.68,17.18-13.07,25.65-4.4,8.47-8.55,16.97-12.45,25.52-2.01,4.4-3.89,8.83-5.66,13.28-1.61,2.88-3.32,5.88-5.17,9.01-2.16,3.65-4.57,7.39-7.22,11.2-5.31,7.64-10.71,14.11-16.18,19.42-5.48,5.31-10.83,9.59-16.06,12.82s-10.21,5.4-14.94,6.47c-4.73,1.08-8.92,1.21-12.57,.37-3.82-1-6.81-2.82-8.96-5.48-2.16-2.65-3.73-5.73-4.73-9.21-1-3.49-1.49-7.1-1.49-10.83s.41-7.1,1.25-10.08c1.33-5.31,3.65-11.41,6.97-18.3,3.32-6.89,7.38-13.57,12.2-20.04,4.81-6.47,10.29-12.2,16.43-17.18,6.14-4.98,12.7-8.13,19.67-9.46,4.81-.83,7.76,.46,8.84,3.86,1.08,3.4,.37,7.59-2.12,12.57-.5,2.16,.08,3.7,1.74,4.61,1.66,.91,3.15,.54,4.48-1.12,2.65-4.15,4.23-8.22,4.73-12.2,.5-3.98,.12-7.47-1.12-10.46-1.25-2.99-3.24-5.39-5.98-7.22-2.74-1.82-6.1-2.74-10.08-2.74-6.14-.16-12.29,.83-18.43,2.99-6.14,2.16-11.95,4.98-17.43,8.47-5.48,3.49-10.46,7.26-14.94,11.33-4.48,4.07-8.05,7.84-10.71,11.33-8.3,10.96-14.32,21.12-18.05,30.5-.19,.49-.36,.97-.54,1.46-1.21,1.69-2.43,3.39-3.69,5.14-4.07,5.65-8.38,11.04-12.95,16.18-4.57,5.15-9.42,9.75-14.57,13.82-5.15,4.07-10.71,6.93-16.68,8.59h-2.74c-2.99-.16-4.28-2.12-3.86-5.85,.41-3.73,1.74-8.5,3.98-14.32,2.24-5.81,5.19-12.2,8.84-19.17,3.65-6.97,7.26-13.73,10.83-20.29,3.57-6.56,6.89-12.41,9.96-17.55,3.07-5.14,5.1-8.88,6.1-11.2,1.16-2.65,1.12-5.39-.12-8.22-1.25-2.82-2.99-5.31-5.23-7.47-2.24-2.16-4.73-3.77-7.47-4.86-2.74-1.08-4.94-1.2-6.6-.37-2.33,6.14-5.4,13.32-9.21,21.54-3.82,8.22-7.72,16.6-11.7,25.15-1.74,3.73-3.42,7.42-5.06,11.07-2.09,3.38-4.26,6.94-6.51,10.72-3.57,5.98-7.43,11.7-11.58,17.18-4.15,5.48-8.68,10.38-13.57,14.69-4.9,4.32-10.17,7.31-15.81,8.96h-2.99c-3.16-.16-4.57-2.65-4.23-7.47,.33-4.81,1.7-10.87,4.11-18.18,2.4-7.3,5.52-15.35,9.34-24.15,3.82-8.8,7.68-17.18,11.58-25.15,3.9-7.97,7.43-15.06,10.58-21.29,3.15-6.23,5.31-10.5,6.47-12.82,1.82-3.65,3.73-7.38,5.73-11.2,1.99-3.82,3.9-7.63,5.73-11.45,8.47-1.82,16.72-3.03,24.77-3.61,5.78-.42,11.62-.54,17.53-.41-.1,.87-.18,1.72-.23,2.52,0,1.33,.46,2.86,1.37,4.61,.91,1.74,2.03,3.49,3.36,5.23,1.33,1.74,2.78,3.28,4.36,4.61,1.58,1.33,3.03,2.08,4.36,2.24,.83-3.32,2.07-6.64,3.73-9.96,1.66-3.32,3.36-6.68,5.1-10.08,1.74-3.4,3.4-6.72,4.98-9.96,1.58-3.24,2.78-6.43,3.61-9.59,0-1-.83-2.78-2.49-5.35-1.66-2.57-3.7-5.1-6.1-7.59-2.41-2.49-4.85-4.65-7.35-6.47-2.49-1.82-4.48-2.65-5.98-2.49-.17,3.65-.71,7.51-1.62,11.58-.91,4.07-1.91,8.09-2.99,12.08-.47,1.74-.92,3.45-1.34,5.13-12.97,.26-25.85,1.77-38.62,4.58,2.32-4.65,4.27-8.71,5.85-12.2,1.58-3.49,2.7-6.14,3.36-7.97,1-2.65,.75-5.39-.75-8.22-1.49-2.82-3.49-5.27-5.98-7.34-2.49-2.07-5.15-3.65-7.97-4.73-2.82-1.08-5.07-1.2-6.72-.37-1.83,6.97-4.36,14.69-7.59,23.16-3.24,8.47-7.26,17.68-12.08,27.64-12.78,5.31-25.23,11.87-37.35,19.67-1,.67-1.66,1.46-1.99,2.37-.33,.91-.33,1.74,0,2.49,.33,.75,.91,1.29,1.74,1.62,.83,.33,1.82,.33,2.99,0,4.81-2.65,9.59-5.06,14.32-7.22,4.73-2.16,9.42-4.15,14.07-5.98l-.75,1.49c-4.32,8.63-8.71,17.18-13.2,25.65-4.48,8.47-8.63,16.97-12.45,25.52-2.42,5.43-4.66,10.89-6.75,16.38-3.13,4.46-6.47,9.15-10.05,14.12-4.07,5.65-8.38,11.04-12.95,16.18-4.57,5.15-9.42,9.75-14.57,13.82-5.15,4.07-10.71,6.93-16.68,8.59h-2.74c-2.99-.16-4.28-2.12-3.86-5.85,.41-3.73,1.74-8.5,3.98-14.32,2.24-5.81,5.19-12.2,8.84-19.17,3.65-6.97,7.26-13.73,10.83-20.29,3.57-6.56,6.89-12.41,9.96-17.55,3.07-5.14,5.1-8.88,6.1-11.2,1.16-2.65,1.12-5.39-.12-8.22-1.25-2.82-2.99-5.31-5.23-7.47-2.24-2.16-4.73-3.77-7.47-4.86-2.74-1.08-4.94-1.2-6.6-.37-2.33,6.14-5.4,13.32-9.21,21.54-3.82,8.22-7.72,16.6-11.7,25.15-3.98,8.55-7.72,16.89-11.2,25.02-3.49,8.14-6.06,15.19-7.72,21.16-1.33,4.32-2.07,8.38-2.24,12.2-.16,3.82,.25,7.22,1.24,10.21,1,2.99,2.58,5.4,4.73,7.22,2.16,1.83,4.98,2.82,8.47,2.99,2.82,0,5.6-.37,8.34-1.12s5.27-1.66,7.59-2.74c2.32-1.08,4.4-2.28,6.22-3.61,1.82-1.33,3.4-2.49,4.73-3.49,10.12-7.8,18.84-16.31,26.14-25.52,2.71-3.42,5.4-6.96,8.07-10.6-1.18,4.76-2.14,9.58-2.85,14.46-.83,4.32-1.12,8.43-.87,12.32,.25,3.9,1,7.35,2.24,10.33s3.07,5.35,5.48,7.1c2.4,1.74,5.35,2.7,8.84,2.86,2.99,0,5.77-.37,8.34-1.12,2.57-.75,4.98-1.66,7.22-2.74,2.24-1.08,4.27-2.28,6.1-3.61,1.82-1.33,3.32-2.49,4.48-3.49,4.65-3.82,8.92-8.05,12.82-12.7,2.63-3.13,5.13-6.35,7.54-9.63-.06,.22-.13,.45-.19,.67-1.33,4.32-2.07,8.38-2.24,12.2-.16,3.82,.25,7.22,1.24,10.21,1,2.99,2.58,5.4,4.73,7.22,2.16,1.83,4.98,2.82,8.47,2.99,2.82,0,5.6-.37,8.34-1.12s5.27-1.66,7.59-2.74c2.32-1.08,4.4-2.28,6.22-3.61,1.82-1.33,3.4-2.49,4.73-3.49,10.12-7.8,18.84-16.31,26.14-25.52,1.53-1.94,3.06-3.91,4.58-5.92-.33,3.09-.46,6.18-.35,9.28,.5,10.29,3.9,18.42,10.21,24.4,6.31,5.98,15.1,8.96,26.39,8.96,1.99,0,4.56-.04,7.72-.12,3.15-.09,6.72-.58,10.71-1.49,3.98-.91,8.22-2.49,12.7-4.73,4.48-2.24,9.13-5.52,13.94-9.83,4.81-4.31,9.17-8.84,13.07-13.57,3.9-4.73,7.47-9.46,10.71-14.19,.22-.32,.43-.64,.65-.96-.92,3.97-1.68,7.99-2.27,12.04-.83,4.32-1.12,8.43-.87,12.32,.25,3.9,1,7.35,2.24,10.33s3.07,5.35,5.48,7.1c2.4,1.74,5.35,2.7,8.84,2.86,2.99,0,5.77-.37,8.34-1.12,2.57-.75,4.98-1.66,7.22-2.74,2.24-1.08,4.27-2.28,6.1-3.61,1.82-1.33,3.32-2.49,4.48-3.49,4.65-3.82,8.92-8.05,12.82-12.7,2.63-3.13,5.13-6.35,7.54-9.63-.06,.22-.13,.45-.19,.67-1.33,4.32-2.07,8.38-2.24,12.2-.16,3.82,.25,7.22,1.24,10.21,1,2.99,2.58,5.4,4.73,7.22,2.16,1.83,4.98,2.82,8.47,2.99,2.82,0,5.6-.37,8.34-1.12s5.27-1.66,7.59-2.74c2.32-1.08,4.4-2.28,6.22-3.61,1.82-1.33,3.4-2.49,4.73-3.49,10.12-7.8,18.84-16.31,26.14-25.52,2.82-3.56,5.61-7.23,8.38-11.03-.61,2.1-1.21,4.2-1.79,6.29-2.58,9.38-4.11,18.97-4.61,28.76,.17,1.33,1.16,2.82,2.99,4.48,1.82,1.66,3.86,3.11,6.1,4.36,2.24,1.25,4.27,2.12,6.1,2.61,1.82,.5,2.74,.17,2.74-1,.83-10.96,2.65-21.37,5.48-31.25,2.82-9.87,6.31-19.63,10.46-29.26,5.31-6.47,10.46-12.36,15.44-17.68,4.98-5.31,10.71-10.87,17.18-16.68,5.81-4.98,10.12-8.01,12.95-9.09,2.82-1.08,4.56-.79,5.23,.87,.66,1.66,.5,4.28-.5,7.84-1,3.57-2.41,7.51-4.23,11.83-2.82,6.81-5.4,12.99-7.72,18.55-2.33,5.56-4.28,10.71-5.85,15.44-1.58,4.73-2.86,9.21-3.86,13.45-1,4.23-1.58,8.51-1.74,12.82-.17,4.32,.33,8.05,1.49,11.2,1.16,3.16,2.74,5.73,4.73,7.72s4.36,3.49,7.1,4.48c2.74,1,5.52,1.49,8.34,1.49,4.98,0,10.12-1.78,15.44-5.35,5.31-3.57,10.33-7.84,15.06-12.82,4.73-4.98,9.09-10.17,13.07-15.56,3.98-5.39,7.13-9.92,9.46-13.57l12.95-21.66c.66-1.16,.87-2.16,.62-2.99-.25-.83-.75-1.49-1.49-1.99Z"/><path d="M1059.43,126.79c8.3-9.38,14.98-19.67,20.04-30.87,5.06-11.2,7.59-23.19,7.59-35.98,0-8.3-1.54-16.39-4.61-24.28-3.07-7.88-8.18-14.73-15.31-20.54-7.14-5.81-16.43-10.08-27.89-12.82s-25.48-3.03-42.08-.87c-19.59,1-38.18,5.52-55.77,13.57-17.6,8.05-33.53,18.43-47.8,31.12-14.28,12.7-26.48,27.06-36.6,43.07-10.13,16.02-17.51,32.41-22.16,49.17-1.49,5.31-1.33,10.46,.5,15.44,1.82,4.98,4.15,9.09,6.97,12.33,2.82,3.24,5.48,5.23,7.97,5.98,2.49,.75,3.65-.46,3.49-3.61-.33-5.14,.54-11.29,2.61-18.42,2.07-7.14,5.1-14.85,9.09-23.16,3.98-8.3,8.88-16.89,14.69-25.77,5.81-8.88,12.2-17.59,19.17-26.14,6.97-8.55,14.44-16.64,22.41-24.28,7.97-7.63,16.18-14.36,24.65-20.17,8.46-5.81,17.05-10.46,25.77-13.94s17.3-5.31,25.77-5.48c14.94-.16,26.72,1.33,35.36,4.47,8.63,3.15,15.1,7.17,19.42,12.06,4.31,4.89,6.97,10.19,7.97,15.91s1.49,10.98,1.49,15.78c-.17,10.44-2.28,20.51-6.35,30.21-4.07,9.69-9.42,18.81-16.06,27.35-6.64,8.54-14.36,16.32-23.16,23.37-8.8,7.05-18.05,13.1-27.76,18.15-9.71,5.06-19.54,8.95-29.5,11.69-9.96,2.73-19.42,4.1-28.38,4.1-5.48,.17-10.71-.33-15.69-1.49,4.81-10.96,10.08-22.07,15.81-33.36,5.73-11.29,11.78-22.32,18.18-33.12,6.39-10.79,13.07-21.25,20.04-31.37,6.97-10.12,14.03-19.58,21.16-28.38,1-2.82,.62-5.81-1.12-8.96-1.74-3.15-3.94-5.93-6.6-8.34-2.66-2.4-5.31-4.19-7.97-5.35-2.66-1.16-4.32-1.25-4.98-.25-5.81,8.47-11.99,18.05-18.55,28.76-6.56,10.71-13.07,22.12-19.54,34.24-6.47,12.12-12.78,24.53-18.92,37.22-6.14,12.7-11.7,25.27-16.68,37.72-4.98-5.81-9.05-14.11-12.2-24.9-4.98,2.16-7.06,4.82-6.22,7.97,1.33,10.46,6.22,19.17,14.69,26.14-4.98,13.28-9.01,25.73-12.08,37.35-3.07,11.62-4.77,21.91-5.1,30.87-.33,1.16,.16,3.07,1.49,5.73,1.33,2.65,2.86,5.23,4.61,7.72s3.36,4.48,4.86,5.98c1.49,1.49,2.32,1.66,2.49,.5,1.33-10.29,3.98-22.08,7.97-35.36,3.98-13.28,9.13-27.5,15.44-42.65,5.98,1.88,12.7,2.89,20.17,3.07,9.46,.33,19.83-.7,31.12-3.11,11.29-2.4,22.66-6.06,34.11-10.96,11.45-4.89,22.57-10.96,33.36-18.18,10.79-7.22,20.33-15.52,28.63-24.9Z"/><path d="M1106.98,87.2c1.33,1.74,2.78,3.28,4.36,4.61,1.58,1.33,3.03,2.08,4.36,2.24,.83-3.32,2.07-6.64,3.73-9.96,1.66-3.32,3.36-6.68,5.1-10.08,1.74-3.4,3.4-6.72,4.98-9.96,1.58-3.24,2.78-6.43,3.61-9.59,0-1-.83-2.78-2.49-5.35-1.66-2.57-3.7-5.1-6.1-7.59-2.41-2.49-4.86-4.65-7.34-6.47-2.49-1.82-4.48-2.65-5.98-2.49-.17,3.65-.71,7.51-1.62,11.58-.91,4.07-1.91,8.09-2.99,12.08-1.08,3.98-2.04,7.8-2.86,11.45-.83,3.65-1.33,6.89-1.49,9.71,0,1.33,.46,2.86,1.37,4.61,.91,1.74,2.03,3.49,3.36,5.23Z"/><path d="M1474.72,87.2c1.33,1.74,2.78,3.28,4.36,4.61,1.58,1.33,3.03,2.08,4.36,2.24,.83-3.32,2.07-6.64,3.73-9.96,1.66-3.32,3.36-6.68,5.1-10.08,1.74-3.4,3.4-6.72,4.98-9.96,1.58-3.24,2.78-6.43,3.61-9.59,0-1-.83-2.78-2.49-5.35-1.66-2.57-3.7-5.1-6.1-7.59-2.41-2.49-4.86-4.65-7.34-6.47-2.49-1.82-4.48-2.65-5.98-2.49-.17,3.65-.71,7.51-1.62,11.58-.91,4.07-1.91,8.09-2.99,12.08-1.08,3.98-2.04,7.8-2.86,11.45-.83,3.65-1.33,6.89-1.49,9.71,0,1.33,.46,2.86,1.37,4.61,.91,1.74,2.03,3.49,3.36,5.23Z"/><path d="M1631.45,154.55c-.25-.83-.75-1.49-1.49-1.99s-1.58-.7-2.49-.62c-.91,.09-1.62,.54-2.12,1.37-1.99,3.32-4.03,6.77-6.1,10.33-2.08,3.57-4.36,7.18-6.85,10.83-6.47,9.63-13.07,17.35-19.79,23.16-6.72,5.81-12.49,9.88-17.3,12.2-1.83,.83-3.32,1.25-4.48,1.25s-2.04-.25-2.62-.75c-.58-.5-.96-1.08-1.12-1.74-.17-.66-.25-1.24-.25-1.74,.5-6.97,1.58-13.24,3.24-18.8,1.66-5.56,3.82-11.37,6.47-17.43,2.65-6.06,5.73-12.95,9.21-20.67,3.49-7.72,7.3-17.22,11.45-28.51,.66-1.82,.58-3.9-.25-6.22-.83-2.32-2.04-4.52-3.61-6.6-1.58-2.07-3.4-3.82-5.48-5.23-2.08-1.41-4.03-2.12-5.85-2.12-4.48,.33-8.88,1.41-13.2,3.24-4.32,1.83-8.55,4.19-12.7,7.1-4.15,2.91-8.22,6.19-12.2,9.83-3.98,3.65-7.72,7.39-11.21,11.2,1-1.82,1.91-3.57,2.74-5.23,.83-1.66,1.49-3.4,1.99-5.23,.83-2.65,.5-5.39-1-8.22-1.49-2.82-3.49-5.31-5.98-7.47-2.49-2.16-5.1-3.77-7.84-4.86-2.74-1.08-4.94-1.2-6.6-.37-2.82,9.46-6.06,18.84-9.71,28.14-3.65,9.3-7.14,18.63-10.46,28.01-.01,.03-.02,.07-.04,.1-3.2,4.55-6.62,9.37-10.29,14.46-4.07,5.65-8.38,11.04-12.95,16.18-4.57,5.15-9.42,9.75-14.57,13.82-5.15,4.07-10.71,6.93-16.68,8.59h-2.74c-2.99-.16-4.28-2.12-3.86-5.85,.41-3.73,1.74-8.5,3.98-14.32,2.24-5.81,5.19-12.2,8.84-19.17,3.65-6.97,7.26-13.73,10.83-20.29,3.57-6.56,6.89-12.41,9.96-17.55,3.07-5.14,5.1-8.88,6.1-11.2,1.16-2.65,1.12-5.39-.12-8.22-1.25-2.82-2.99-5.31-5.23-7.47-2.24-2.16-4.73-3.77-7.47-4.86-2.74-1.08-4.94-1.2-6.6-.37-2.33,6.14-5.4,13.32-9.21,21.54-3.82,8.22-7.72,16.6-11.7,25.15-1.74,3.73-3.42,7.42-5.06,11.07-2.09,3.38-4.26,6.94-6.51,10.72-3.57,5.98-7.43,11.7-11.58,17.18-4.15,5.48-8.68,10.38-13.57,14.69-4.9,4.32-10.17,7.31-15.81,8.96h-2.99c-3.16-.16-4.57-2.65-4.23-7.47,.33-4.81,1.7-10.87,4.11-18.18,2.4-7.3,5.52-15.35,9.34-24.15,3.82-8.8,7.68-17.18,11.58-25.15,3.9-7.97,7.43-15.06,10.58-21.29,3.15-6.23,5.31-10.5,6.47-12.82,2.65-5.31,5.48-10.83,8.47-16.56,2.99-5.73,5.73-11.16,8.22-16.31,2.49-5.14,4.69-9.75,6.6-13.82,1.91-4.07,3.19-7.1,3.86-9.09,1-2.65,.75-5.39-.75-8.22-1.49-2.82-3.49-5.27-5.98-7.34-2.49-2.07-5.15-3.65-7.97-4.73-2.82-1.08-5.07-1.2-6.72-.37-1.16,4.32-2.66,9.05-4.48,14.19-1.83,5.15-3.95,10.54-6.35,16.18-2.41,5.65-4.94,11.41-7.59,17.3-2.66,5.89-5.4,11.75-8.22,17.55-4.32,8.63-8.68,17.18-13.07,25.65-4.4,8.47-8.55,16.97-12.45,25.52-2.01,4.41-3.89,8.83-5.66,13.28-1.6,2.88-3.32,5.88-5.17,9-2.16,3.65-4.57,7.39-7.22,11.2-5.31,7.64-10.71,14.11-16.18,19.42-5.48,5.31-10.83,9.59-16.06,12.82-5.23,3.24-10.21,5.4-14.94,6.47-4.73,1.08-8.92,1.21-12.57,.37-3.82-1-6.81-2.82-8.96-5.48-2.16-2.65-3.74-5.73-4.73-9.21-1-3.49-1.49-7.1-1.49-10.83s.41-7.1,1.24-10.08c1.33-5.31,3.65-11.41,6.97-18.3,3.32-6.89,7.38-13.57,12.2-20.04,4.81-6.47,10.29-12.2,16.43-17.18,6.14-4.98,12.7-8.13,19.67-9.46,4.81-.83,7.76,.46,8.84,3.86,1.08,3.4,.37,7.59-2.12,12.57-.5,2.16,.08,3.7,1.74,4.61,1.66,.91,3.15,.54,4.48-1.12,2.65-4.15,4.23-8.22,4.73-12.2,.5-3.98,.12-7.47-1.12-10.46s-3.24-5.39-5.98-7.22c-2.74-1.82-6.1-2.74-10.08-2.74-6.14-.16-12.29,.83-18.42,2.99-6.14,2.16-11.95,4.98-17.43,8.47-5.48,3.49-10.46,7.26-14.94,11.33-4.48,4.07-8.05,7.84-10.71,11.33-8.3,10.96-14.32,21.12-18.05,30.5-.19,.48-.36,.97-.54,1.45-1.21,1.69-2.43,3.4-3.69,5.15-4.07,5.65-8.38,11.04-12.95,16.18-4.57,5.15-9.42,9.75-14.57,13.82-5.15,4.07-10.71,6.93-16.68,8.59h-2.74c-2.99-.16-4.28-2.12-3.86-5.85,.41-3.73,1.74-8.5,3.98-14.32,2.24-5.81,5.19-12.2,8.84-19.17,3.65-6.97,7.26-13.73,10.83-20.29,3.57-6.56,6.89-12.41,9.96-17.55,3.07-5.14,5.1-8.88,6.1-11.2,1.16-2.65,1.12-5.39-.12-8.22-1.25-2.82-2.99-5.31-5.23-7.47-2.24-2.16-4.73-3.77-7.47-4.86-2.74-1.08-4.94-1.2-6.6-.37-2.33,6.14-5.4,13.32-9.21,21.54-3.82,8.22-7.72,16.6-11.7,25.15-1.74,3.73-3.42,7.42-5.07,11.07-2.09,3.38-4.25,6.93-6.51,10.71-3.57,5.98-7.43,11.7-11.58,17.18-4.15,5.48-8.68,10.38-13.57,14.69-4.9,4.32-10.17,7.31-15.81,8.96h-2.99c-3.16-.16-4.57-2.65-4.23-7.47,.33-4.81,1.7-10.87,4.11-18.18,2.4-7.3,5.52-15.35,9.34-24.15,3.82-8.8,7.68-17.18,11.58-25.15,3.9-7.97,7.43-15.06,10.58-21.29,3.15-6.23,5.31-10.5,6.47-12.82,1.82-3.65,3.73-7.38,5.73-11.2,1.99-3.82,3.9-7.63,5.73-11.45,8.47-1.82,16.72-3.03,24.77-3.61,5.78-.42,11.62-.54,17.53-.41-.1,.87-.18,1.72-.23,2.52,0,1.33,.46,2.86,1.37,4.61,.91,1.74,2.03,3.49,3.36,5.23,1.33,1.74,2.78,3.28,4.36,4.61,1.58,1.33,3.03,2.08,4.36,2.24,.83-3.32,2.07-6.64,3.73-9.96,1.66-3.32,3.36-6.68,5.1-10.08,1.74-3.4,3.4-6.72,4.98-9.96,1.58-3.24,2.78-6.43,3.61-9.59,0-1-.83-2.78-2.49-5.35-1.66-2.57-3.7-5.1-6.1-7.59-2.41-2.49-4.86-4.65-7.34-6.47-2.49-1.82-4.48-2.65-5.98-2.49-.17,3.65-.71,7.51-1.62,11.58-.91,4.07-1.91,8.09-2.99,12.08-.47,1.74-.92,3.45-1.34,5.13-12.97,.26-25.85,1.77-38.62,4.58,2.32-4.65,4.27-8.71,5.85-12.2,1.58-3.49,2.7-6.14,3.36-7.97,1-2.65,.75-5.39-.75-8.22-1.49-2.82-3.49-5.27-5.98-7.34-2.49-2.07-5.15-3.65-7.97-4.73-2.82-1.08-5.07-1.2-6.72-.37-1.83,6.97-4.36,14.69-7.59,23.16-3.24,8.47-7.26,17.68-12.08,27.64-12.78,5.31-25.23,11.87-37.35,19.67-1,.67-1.66,1.46-1.99,2.37-.33,.91-.33,1.74,0,2.49,.33,.75,.91,1.29,1.74,1.62,.83,.33,1.82,.33,2.99,0,4.81-2.65,9.59-5.06,14.32-7.22,4.73-2.16,9.42-4.15,14.07-5.98l-.75,1.49c-4.32,8.63-8.71,17.18-13.2,25.65-4.48,8.47-8.63,16.97-12.45,25.52-2.42,5.43-4.66,10.89-6.75,16.38-3.13,4.46-6.47,9.15-10.05,14.12-4.07,5.65-8.38,11.04-12.95,16.18-4.57,5.15-9.42,9.75-14.57,13.82-5.15,4.07-10.71,6.93-16.68,8.59h-2.74c-2.99-.16-4.28-2.12-3.86-5.85,.41-3.73,1.74-8.5,3.98-14.32,2.24-5.81,5.19-12.2,8.84-19.17,3.65-6.97,7.26-13.73,10.83-20.29,3.57-6.56,6.89-12.41,9.96-17.55,3.07-5.14,5.1-8.88,6.1-11.2,1.16-2.65,1.12-5.39-.12-8.22-1.25-2.82-2.99-5.31-5.23-7.47-2.24-2.16-4.73-3.77-7.47-4.86-2.74-1.08-4.94-1.2-6.6-.37-2.33,6.14-5.4,13.32-9.21,21.54-3.82,8.22-7.72,16.6-11.7,25.15-3.98,8.55-7.72,16.89-11.21,25.02-3.49,8.14-6.06,15.19-7.72,21.16-1.33,4.32-2.07,8.38-2.24,12.2-.16,3.82,.25,7.22,1.25,10.21s2.58,5.4,4.73,7.22c2.16,1.83,4.98,2.82,8.47,2.99,2.82,0,5.6-.37,8.34-1.12,2.74-.75,5.27-1.66,7.59-2.74,2.32-1.08,4.4-2.28,6.22-3.61,1.83-1.33,3.4-2.49,4.73-3.49,10.12-7.8,18.84-16.31,26.14-25.52,2.71-3.42,5.4-6.96,8.07-10.6-1.18,4.76-2.14,9.58-2.85,14.46-.83,4.32-1.12,8.43-.87,12.32,.25,3.9,1,7.35,2.24,10.33s3.07,5.35,5.48,7.1c2.4,1.74,5.35,2.7,8.84,2.86,2.99,0,5.77-.37,8.34-1.12,2.57-.75,4.98-1.66,7.22-2.74,2.24-1.08,4.27-2.28,6.1-3.61,1.82-1.33,3.32-2.49,4.48-3.49,4.65-3.82,8.92-8.05,12.82-12.7,2.63-3.13,5.13-6.35,7.54-9.63-.06,.22-.13,.45-.19,.67-1.33,4.32-2.07,8.38-2.24,12.2-.16,3.82,.25,7.22,1.25,10.21s2.58,5.4,4.73,7.22c2.16,1.83,4.98,2.82,8.47,2.99,2.82,0,5.6-.37,8.34-1.12,2.74-.75,5.27-1.66,7.59-2.74,2.32-1.08,4.4-2.28,6.22-3.61,1.83-1.33,3.4-2.49,4.73-3.49,10.12-7.8,18.84-16.31,26.14-25.52,1.53-1.94,3.06-3.91,4.58-5.92-.33,3.09-.46,6.18-.35,9.28,.5,10.29,3.9,18.42,10.21,24.4,6.31,5.98,15.1,8.96,26.39,8.96,1.99,0,4.56-.04,7.72-.12,3.15-.09,6.72-.58,10.71-1.49,3.98-.91,8.22-2.49,12.7-4.73s9.13-5.52,13.94-9.83c4.81-4.31,9.17-8.84,13.07-13.57,3.9-4.73,7.47-9.46,10.71-14.19,.22-.32,.43-.64,.65-.96-.92,3.97-1.68,7.99-2.27,12.04-.83,4.32-1.12,8.43-.87,12.32,.25,3.9,1,7.35,2.24,10.33s3.07,5.35,5.48,7.1c2.4,1.74,5.35,2.7,8.84,2.86,2.99,0,5.77-.37,8.34-1.12,2.57-.75,4.98-1.66,7.22-2.74,2.24-1.08,4.27-2.28,6.1-3.61,1.82-1.33,3.32-2.49,4.48-3.49,4.65-3.82,8.92-8.05,12.82-12.7,2.63-3.13,5.14-6.35,7.54-9.63-.06,.22-.13,.45-.19,.67-1.33,4.32-2.07,8.38-2.24,12.2-.16,3.82,.25,7.22,1.25,10.21s2.58,5.4,4.73,7.22c2.16,1.83,4.98,2.82,8.47,2.99,2.82,0,5.6-.37,8.34-1.12,2.74-.75,5.27-1.66,7.59-2.74,2.32-1.08,4.4-2.28,6.22-3.61,1.83-1.33,3.4-2.49,4.73-3.49,10.12-7.8,18.84-16.31,26.14-25.52,2.82-3.56,5.61-7.23,8.38-11.02-.61,2.1-1.21,4.2-1.79,6.29-2.58,9.38-4.11,18.97-4.61,28.76,.17,1.33,1.16,2.82,2.99,4.48,1.82,1.66,3.86,3.11,6.1,4.36,2.24,1.25,4.27,2.12,6.1,2.61,1.82,.5,2.74,.17,2.74-1,.83-10.96,2.65-21.37,5.48-31.25,2.82-9.87,6.31-19.63,10.46-29.26,5.31-6.47,10.46-12.36,15.44-17.68,4.98-5.31,10.71-10.87,17.18-16.68,5.81-4.98,10.12-8.01,12.95-9.09,2.82-1.08,4.56-.79,5.23,.87,.66,1.66,.5,4.28-.5,7.84-1,3.57-2.41,7.51-4.23,11.83-2.82,6.81-5.4,12.99-7.72,18.55-2.33,5.56-4.28,10.71-5.85,15.44-1.58,4.73-2.86,9.21-3.86,13.45-1,4.23-1.58,8.51-1.74,12.82-.17,4.32,.33,8.05,1.49,11.2,1.16,3.16,2.74,5.73,4.73,7.72,1.99,1.99,4.36,3.49,7.1,4.48,2.74,1,5.52,1.49,8.34,1.49,4.98,0,10.12-1.78,15.44-5.35,5.31-3.57,10.33-7.84,15.06-12.82,4.73-4.98,9.09-10.17,13.07-15.56,3.98-5.39,7.13-9.92,9.46-13.57l12.95-21.66c.66-1.16,.87-2.16,.62-2.99Z"/></g></g></g></svg>